<?xml version="1.0" encoding="utf-8"?>
<!-- Generator: Adobe Illustrator 24.3.0, SVG Export Plug-In . SVG Version: 6.00 Build 0)  -->
<svg version="1.1" id="Layer_1" xmlns="http://www.w3.org/2000/svg" xmlns:xlink="http://www.w3.org/1999/xlink" x="0px" y="0px"
	 viewBox="0 0 21 20" style="enable-background:new 0 0 21 20;" xml:space="preserve">
<style type="text/css">
	.st0{fill:#1EA575;}
</style>
<path class="st0" d="M8,18.7H6.1v-1.3H8V9.7L5.8,8.4l0.6-1.1l2.2,1.3C9,8.9,9.2,9.3,9.3,9.7v7.8C9.3,18.2,8.7,18.7,8,18.7z"/>
<path class="st0" d="M14.3,18.7h-1.9c-0.7,0-1.3-0.6-1.3-1.3v-6.9h3.8c1.4,0,2.5-1.1,2.5-2.5c0-0.1,0-0.2,0-0.3
	c-0.2-1.3-1.3-2.3-2.6-2.3h-1l-0.1-0.5c-0.4-1.6-1.9-2.6-3.8-2.6c-1.5,0-2.8,0.9-3.4,2.2L6.3,5.1L5.7,5C5.7,5,5.6,5,5.5,5
	C4.1,5,3,6.1,3,7.5S4.1,10,5.5,10v1.3c-2.1,0-3.8-1.7-3.8-3.8s1.7-3.8,3.8-3.8h0.1c0.9-1.5,2.5-2.5,4.3-2.5c2.3,0,4.2,1.2,4.8,3.1h0
	c2,0,3.6,1.4,3.9,3.4c0.2,2.1-1.3,3.9-3.4,4.1c-0.1,0-0.2,0-0.4,0h-2.5v5.6h1.9V18.7z"/>
</svg>
